<?xml version="1.0" standalone="no"?>
<!DOCTYPE svg PUBLIC "-//W3C//DTD SVG 20010904//EN"
 "http://www.w3.org/TR/2001/REC-SVG-20010904/DTD/svg10.dtd">
<svg version="1.0" xmlns="http://www.w3.org/2000/svg"
 width="381.000000pt" height="381.000000pt" viewBox="0 0 381.000000 381.000000"
 preserveAspectRatio="xMidYMid meet">
<metadata>
Created by potrace 1.14, written by Peter Selinger 2001-2017
</metadata>
<g transform="translate(0.000000,381.000000) scale(0.100000,-0.100000)"
fill="#000000" stroke="none">
<path d="M1940 3759 c-167 -24 -304 -119 -412 -284 -90 -136 -224 -468 -289
-715 -12 -46 -24 -78 -26 -70 -3 8 -10 26 -16 40 -36 80 -72 80 -152 0 -33
-33 -64 -60 -70 -60 -6 0 -24 -13 -40 -30 -16 -16 -34 -30 -40 -30 -6 0 -24
-13 -40 -30 -16 -16 -36 -30 -45 -30 -18 0 -222 -100 -248 -122 -9 -8 -30 -20
-47 -28 -35 -16 -205 -179 -205 -196 0 -6 -6 -17 -14 -24 -19 -15 -106 -190
-106 -212 0 -9 -4 -20 -10 -23 -5 -3 -10 -21 -10 -40 0 -19 -5 -37 -10 -40
-14 -8 -14 -402 0 -410 6 -3 10 -19 10 -35 0 -16 9 -45 20 -65 11 -20 20 -44
20 -54 0 -10 7 -24 15 -31 9 -7 23 -29 32 -49 17 -38 200 -231 218 -231 6 0
29 -18 50 -40 21 -22 44 -40 50 -40 7 0 20 -9 30 -20 13 -14 31 -20 61 -20 24
0 46 -5 49 -10 3 -6 39 -10 80 -10 41 0 77 -5 80 -10 3 -6 17 -10 30 -10 13 0
27 -4 30 -10 3 -5 17 -10 31 -10 42 0 33 -61 -28 -180 -51 -100 -52 -103 -61
-225 l-9 -123 27 -51 c27 -49 153 -174 203 -200 50 -26 103 17 88 71 -3 13
-40 52 -82 88 -107 92 -113 105 -105 211 7 77 13 97 59 188 29 55 52 110 52
121 0 25 12 25 35 0 10 -11 23 -20 29 -20 7 0 34 -22 61 -50 27 -27 54 -50 61
-50 6 0 19 -9 29 -20 11 -12 31 -20 50 -20 19 0 39 -8 50 -20 11 -12 31 -20
51 -20 18 0 36 -4 39 -10 3 -5 22 -10 41 -10 l34 0 -37 -57 c-37 -54 -38 -59
-41 -158 -4 -97 -2 -105 26 -161 44 -87 116 -120 162 -74 29 29 25 57 -14 93
-46 44 -56 67 -56 129 0 43 6 64 31 104 57 89 69 123 69 207 l0 78 48 -7 c26
-3 56 -11 67 -17 11 -6 65 -12 121 -15 99 -4 101 -5 96 -28 -2 -13 -25 -40
-49 -61 -62 -50 -95 -124 -101 -223 -4 -63 -1 -83 17 -118 46 -90 212 -160
386 -163 175 -3 256 1 325 15 41 9 85 16 97 16 30 0 63 34 63 65 0 14 -9 34
-21 46 -22 22 -29 22 -183 -8 -92 -18 -152 -12 -201 19 -28 19 -36 32 -45 76
-15 70 -4 166 31 277 16 49 29 94 29 101 0 6 28 17 63 24 34 6 85 20 112 30
100 37 92 41 97 -53 3 -69 9 -92 32 -131 27 -46 27 -48 10 -74 -24 -38 -45
-51 -76 -52 -33 0 -68 -32 -68 -60 0 -64 102 -81 183 -30 43 27 47 28 47 10 0
-31 36 -60 74 -60 47 0 136 49 163 89 19 28 23 48 23 109 0 72 -1 76 -34 107
-19 17 -44 51 -55 74 -22 42 -22 44 -7 144 9 56 27 134 41 172 13 39 24 80 25
92 0 17 8 24 28 28 74 14 116 27 160 47 81 37 184 113 255 186 l67 70 0 71 c0
67 -2 72 -30 93 -16 12 -30 28 -30 35 0 17 4 17 50 -7 50 -25 92 -26 115 0 16
17 17 31 11 113 -8 109 -52 281 -92 363 -19 37 -65 95 -128 161 -127 133 -161
150 -321 163 -65 6 -121 12 -123 15 -3 3 7 14 21 26 51 39 30 93 -53 134 -19
10 -46 26 -59 37 -13 10 -49 26 -80 35 l-56 17 80 23 c204 60 346 110 415 147
157 84 240 199 240 331 0 37 -5 75 -11 87 -6 11 -36 32 -67 46 -56 27 -61 27
-257 26 -282 -1 -447 -22 -625 -81 -41 -14 -94 -31 -117 -38 l-41 -13 20 47
c26 60 34 173 19 252 -26 128 -88 227 -189 300 l-55 39 -96 -1 c-53 -1 -121
-5 -151 -10z m916 -2955 c-4 -9 -9 -56 -13 -103 -6 -85 -5 -88 31 -159 20 -39
45 -78 56 -84 28 -17 26 -62 -2 -80 -13 -8 -38 -17 -56 -20 -27 -4 -32 -2 -26
11 4 9 9 39 11 68 5 44 1 59 -22 100 -25 42 -29 61 -33 149 -4 97 -3 102 19
118 30 20 43 20 35 0z m-586 -211 c-5 -16 -16 -50 -25 -78 -21 -69 -31 -237
-16 -304 6 -30 9 -56 7 -59 -11 -10 -147 43 -176 69 -34 32 -37 53 -15 126 12
39 26 59 60 88 51 41 70 72 81 130 8 46 17 55 61 55 30 0 31 -1 23 -27z"/>
</g>
</svg>
